# xmcd
#
# Track frame offsets: 
#        150
#        6109
#        17340
#        28242
#        38791
#        48894
#        59645
#        70880
#        83813
#        96918
#        108552
#        120013
#        131572
#        148543
#        160018
#        169240
#        182025
#        192268
#        202365
#        212846
#        222556
#        232473
#        241673
#
# Disc length: 3374 seconds
#
# Revision: 1
# Processed by: cddbd v1.5.2PL0 Copyright (c) Steve Scherf et al.
# Submitted via: ExactAudioCopy v1.0b4
#
DISCID=4e0d2c17
DTITLE=Various Artist - The Country Album
DYEAR=1900
DGENRE=Country
TTITLE0=Jim Reeves - Have I Told You Lately That I Love You
TTITLE1=Connie Francis - All By Myself
TTITLE2=George Jones - Accidently On Purpose
TTITLE3=Roger Miller - King Of The Road
TTITLE4=Patsy Cline - Three Cigarettes (in an ashtray)
TTITLE5=Jim Reeves - I Love You More
TTITLE6=Connie Francis - Rock A Bye Baby With A Dixie Melody
TTITLE7=Glenn Campbell - Rhinestone Cowboy
TTITLE8=Billy Jo Spears - It Could'a Been Me
TTITLE9=Roger Miller - Little Green Apples
TTITLE10=Lyn Anderson - Listen To A Country Song
TTITLE11=S. Walker - Paper Doll
TTITLE12=Glenn Campbell - Southern Nigths
TTITLE13=Patsy Cline - Let The Teardrops Fall
TTITLE14=George Jones - 'Cause I Love You
TTITLE15=Conway Twitty - Crazy Dreams
TTITLE16=John Paycheck - A-11
TTITLE17=Dave Dudley - Oh, Lonesome Me
TTITLE18=Billy Jo Spears - I'm So Lonesome I Could Cry
TTITLE19=George Jones - Frozen Heart
TTITLE20=Dave Dudley - Six Days On The Road
TTITLE21=Frankie Laine - Rawhide
TTITLE22=Patsy Cline - I've Loved And Lost Again
EXTD=
EXTT0=
EXTT1=
EXTT2=
EXTT3=
EXTT4=
EXTT5=
EXTT6=
EXTT7=
EXTT8=
EXTT9=
EXTT10=
EXTT11=
EXTT12=
EXTT13=
EXTT14=
EXTT15=
EXTT16=
EXTT17=
EXTT18=
EXTT19=
EXTT20=
EXTT21=
EXTT22=
PLAYORDER=
